<svg data-v-423bf9ae="" xmlns="http://www.w3.org/2000/svg" viewBox="0 0 499 112" class="iconLeft"><!----><!----><!----><g data-v-423bf9ae="" id="aa66960a-173e-435c-859b-d4fa3efb8e57" fill="#2B1200" transform="matrix(5.602240876404433,0,0,5.602240876404433,106.50436677274269,8.356675034963352)"><path d="M7.39 8.33C8.34 7.99 8.81 7.32 8.81 6.44C8.81 5.18 7.91 4.17 6.31 3.98C5.82 3.92 5.60 3.92 5.08 3.92L1.12 3.92L1.12 13.58L4.97 13.58C5.59 13.58 5.91 13.58 6.40 13.52C7.70 13.37 9.17 12.47 9.17 10.67C9.17 9.49 8.61 8.68 7.39 8.33ZM3.64 5.88L4.77 5.88C5.00 5.88 5.22 5.89 5.40 5.92C5.88 5.99 6.17 6.26 6.17 6.80C6.17 7.38 5.85 7.62 5.39 7.69C5.21 7.71 5.00 7.73 4.77 7.73L3.64 7.73ZM5.63 11.61C5.45 11.62 5.22 11.62 5.00 11.62L3.64 11.62L3.64 9.55L4.93 9.55C5.15 9.55 5.38 9.55 5.56 9.56C6.08 9.60 6.54 9.94 6.54 10.58C6.54 11.21 6.08 11.58 5.63 11.61ZM14.81 5.91C14.34 5.91 13.75 6.12 13.34 6.57L12.81 7.62L12.81 6.10L10.29 6.10L10.29 13.58L12.81 13.58L12.81 10.84C12.81 8.58 13.50 7.88 15.39 8.01L15.39 5.95C15.20 5.92 15.05 5.91 14.81 5.91ZM23.49 9.74C23.49 7.81 22.23 5.91 19.74 5.91C17.25 5.91 15.75 7.69 15.75 9.87C15.75 12.50 17.46 13.78 19.60 13.78C21.52 13.78 22.92 12.82 23.35 11.13L20.87 11.13C20.78 11.70 20.34 12.07 19.63 12.07C18.91 12.07 18.37 11.72 18.24 10.47L23.45 10.47C23.48 10.22 23.49 9.97 23.49 9.74ZM19.61 7.62C20.29 7.62 20.72 8.05 20.86 8.93L18.33 8.93C18.49 8.01 18.96 7.62 19.61 7.62ZM36.09 6.10L33.38 6.10L32.42 11.47L31.47 6.16L28.48 6.16L27.58 11.45L26.60 6.10L23.83 6.10L26.19 13.58L29.01 13.58L29.96 8.54L30.91 13.58L33.73 13.58ZM44.06 9.74C44.06 7.81 42.80 5.91 40.31 5.91C37.81 5.91 36.32 7.69 36.32 9.87C36.32 12.50 38.02 13.78 40.17 13.78C42.08 13.78 43.48 12.82 43.92 11.13L41.44 11.13C41.34 11.70 40.91 12.07 40.19 12.07C39.48 12.07 38.93 11.72 38.81 10.47L44.02 10.47C44.04 10.22 44.06 9.97 44.06 9.74ZM40.18 7.62C40.85 7.62 41.29 8.05 41.43 8.93L38.89 8.93C39.06 8.01 39.52 7.62 40.18 7.62ZM49.67 5.91C49.20 5.91 48.61 6.12 48.20 6.57L47.67 7.62L47.67 6.10L45.15 6.10L45.15 13.58L47.67 13.58L47.67 10.84C47.67 8.58 48.36 7.88 50.25 8.01L50.25 5.95C50.06 5.92 49.91 5.91 49.67 5.91ZM52.29 3.07C51.51 3.07 50.99 3.54 50.99 4.30C50.99 5.05 51.51 5.53 52.29 5.53C53.07 5.53 53.59 5.05 53.59 4.30C53.59 3.54 53.07 3.07 52.29 3.07ZM53.55 13.58L53.55 6.10L51.03 6.10L51.03 13.58ZM62.38 9.74C62.38 7.81 61.12 5.91 58.63 5.91C56.14 5.91 54.64 7.69 54.64 9.87C54.64 12.50 56.35 13.78 58.49 13.78C60.41 13.78 61.81 12.82 62.24 11.13L59.77 11.13C59.67 11.70 59.23 12.07 58.52 12.07C57.81 12.07 57.26 11.72 57.13 10.47L62.34 10.47C62.37 10.22 62.38 9.97 62.38 9.74ZM58.51 7.62C59.18 7.62 59.61 8.05 59.75 8.93L57.22 8.93C57.39 8.01 57.85 7.62 58.51 7.62ZM66.56 5.91C64.57 5.91 63.28 6.83 63.28 8.32C63.28 9.59 64.13 10.25 65.56 10.58C66.89 10.89 67.37 11.16 67.37 11.63C67.37 12.03 67.02 12.21 66.57 12.21C66.04 12.21 65.59 11.83 65.45 11.26L62.97 11.26C63.17 12.94 64.55 13.78 66.58 13.78C68.39 13.78 69.89 13.03 69.89 11.44C69.89 10.00 68.92 9.41 67.56 9.07C66.14 8.72 65.80 8.44 65.80 8.02C65.80 7.70 66.05 7.48 66.40 7.48C66.85 7.48 67.10 7.77 67.21 8.29L69.69 8.29C69.50 6.93 68.42 5.91 66.56 5.91Z"></path></g><defs data-v-423bf9ae=""><linearGradient data-v-423bf9ae="" gradientTransform="rotate(25)" id="237e3a54-656a-4cf5-8f85-ebe770dabc49" x1="0%" y1="0%" x2="100%" y2="0%"><stop data-v-423bf9ae="" offset="0%" style="stop-color: rgb(121, 35, 0); stop-opacity: 1;"></stop><stop data-v-423bf9ae="" offset="100%" style="stop-color: rgb(243, 112, 0); stop-opacity: 1;"></stop></linearGradient></defs><g data-v-423bf9ae="" id="20d5ee0e-76ea-4f87-8d50-00945369a359" transform="matrix(1.1111111111111112,0,0,1.1111111111111112,0.6105558607313313,0.44444444444444287)" stroke="none" fill="url(#237e3a54-656a-4cf5-8f85-ebe770dabc49)"><path d="M71.688 36.5H62V23.947v-.001c.412-.88.702-1.828.856-2.82.005-.03.013-.058.018-.087.05-.341.084-.688.101-1.038.007-.168.025-.332.025-.501C63 13.701 58.299 9 52.5 9c-2.584 0-4.947.938-6.775 2.486A7.97 7.97 0 0043 11c-1.518 0-2.93.43-4.139 1.163A11.938 11.938 0 0032 10c-2.621 0-5.037.85-7.012 2.275C24.867 5.477 19.328 0 12.5 0 5.597 0 0 5.597 0 12.5c0 5.123 3.089 9.51 7.5 11.439V89.5c0 5.799 4.701 10.5 10.5 10.5h33.5c5.799 0 10.5-4.701 10.5-10.5v-5h9.688c2.501 0 7.094-1.191 9.754-9.171 1.327-3.983 2.059-9.25 2.059-14.829-.001-11.603-3.105-24-11.813-24zM21 84h-4V36h4v48zm10 0h-4V36h4v48zm10 0h-4V36h4v48zm10 0h-4V36h4v48zm7.98-64c-.195 3.414-3.018 6.125-6.48 6.125a6.47 6.47 0 01-3.965-1.357 6.5 6.5 0 01-2.302-3.439 4.017 4.017 0 01-2.277 1.544A4.02 4.02 0 0143 23a3.978 3.978 0 01-3.021-1.404c.007.134.021.267.021.404 0 1.42-.373 2.751-1.022 3.907A7.994 7.994 0 0132 30a7.97 7.97 0 01-6.021-2.744 7.951 7.951 0 01-1.84-3.803A3.981 3.981 0 0121 25a4.01 4.01 0 01-.623-.062 3.968 3.968 0 01-2.322-1.252A3.97 3.97 0 0117 21c0-.349.062-.679.146-1 .043-.162.082-.326.145-.48a8.424 8.424 0 01-.816.48 8.474 8.474 0 01-3.473.975c-.168.009-.332.025-.502.025a8.44 8.44 0 01-3.5-.761c-2.946-1.335-5-4.295-5-7.739a8.501 8.501 0 0117 0c0 .169-.016.334-.025.501a8.455 8.455 0 01-1.455 4.29A3.963 3.963 0 0121 17c.033 0 .064.009.098.01a3.97 3.97 0 013.432 2.147 8.02 8.02 0 012.492-3.412A7.954 7.954 0 0132 14c1.469 0 2.84.402 4.023 1.093a8.035 8.035 0 013.051 3.176 3.986 3.986 0 012.795-3.087A3.954 3.954 0 0143 15l.023.002c1.512.009 2.809.864 3.481 2.108a6.512 6.512 0 012.739-3.104 6.455 6.455 0 013.256-.881 6.5 6.5 0 016.5 6.5c.001.127-.011.25-.019.375zm12.41 55.5H62v-30h9.39c1.127 1.049 3.11 6.321 3.11 15s-1.983 13.95-3.11 15z"></path></g><!----></svg>